<svg version="1.1" xmlns="http://www.w3.org/2000/svg" viewBox="0 0 1158.9555654797757 346.99960070529454" width="1158.9555654797757" height="346.99960070529454">
  <!-- svg-source:excalidraw -->
  
  <defs>
    <style class="style-fonts">
      @font-face {
        font-family: "Virgil";
        src: url("https://unpkg.com/@excalidraw/excalidraw@0.14.2/dist/excalidraw-assets/Virgil.woff2");
      }
      @font-face {
        font-family: "Cascadia";
        src: url("https://unpkg.com/@excalidraw/excalidraw@0.14.2/dist/excalidraw-assets/Cascadia.woff2");
      }
    </style>
  </defs>
  <rect x="0" y="0" width="1158.9555654797757" height="346.99960070529454" fill="#ffffff"></rect><g transform="translate(987.9555654797756 295.3539579915452) rotate(0 80.5 13)"><text x="0" y="18" font-family="Virgil, Segoe UI Emoji" font-size="20px" fill="#000000" text-anchor="start" style="white-space: pre;" direction="ltr">localhost:65000</text></g><g transform="translate(556.4448295910348 197.95492191354214) rotate(0 50.5 25.5)"><text x="50.5" y="18.5" font-family="Virgil, Segoe UI Emoji" font-size="20px" fill="#e67700" text-anchor="middle" style="white-space: pre;" direction="ltr">Cloudflare</text><text x="50.5" y="44" font-family="Virgil, Segoe UI Emoji" font-size="20px" fill="#e67700" text-anchor="middle" style="white-space: pre;" direction="ltr">Access</text></g><g stroke-linecap="round" transform="translate(516.7182848098277 176.93452528733832) rotate(0 84.90507507324219 51.09990246099454)"><path d="M124.08 6.19 C135.04 8.74, 145.45 14.21, 152.68 19.86 C159.9 25.51, 164.88 32.64, 167.42 40.09 C169.97 47.54, 170.76 57.26, 167.95 64.57 C165.13 71.89, 158.69 78.6, 150.56 84 C142.42 89.4, 130.33 93.83, 119.14 96.98 C107.95 100.13, 95.49 102.98, 83.41 102.91 C71.34 102.84, 57.7 99.99, 46.7 96.56 C35.69 93.14, 24.76 88.09, 17.39 82.35 C10.01 76.61, 4.81 69.41, 2.46 62.15 C0.11 54.89, 0.37 46.27, 3.28 38.8 C6.18 31.33, 12.1 23.11, 19.9 17.35 C27.71 11.59, 38.93 7.04, 50.08 4.23 C61.24 1.43, 73.86 0.02, 86.86 0.53 C99.86 1.05, 120.5 5.65, 128.09 7.32 C135.68 8.99, 132.91 9.79, 132.39 10.55 M103.61 0.85 C115 1.99, 127.69 7.66, 137.13 12.49 C146.57 17.32, 155.03 23.25, 160.26 29.84 C165.48 36.42, 168.35 44.8, 168.5 52.02 C168.65 59.25, 166.12 66.74, 161.14 73.18 C156.16 79.62, 148.42 85.97, 138.62 90.68 C128.81 95.39, 114.47 99.72, 102.31 101.43 C90.15 103.14, 77.38 102.66, 65.66 100.95 C53.93 99.25, 41.58 95.87, 31.96 91.2 C22.35 86.53, 13.35 79.84, 7.96 72.93 C2.57 66.01, -0.44 57.09, -0.39 49.71 C-0.34 42.34, 2.62 34.96, 8.25 28.68 C13.88 22.39, 23.58 16.7, 33.39 11.99 C43.21 7.29, 55.34 2.42, 67.15 0.44 C78.96 -1.53, 98.25 -0.21, 104.27 0.13 C110.28 0.46, 103.41 1.18, 103.23 2.46" stroke="#000000" stroke-width="1" fill="none"></path></g><g stroke-linecap="round" transform="translate(548.0789848644723 122.80694217721401) rotate(0 60.315460205078125 38.03851318359375)"><path d="M69.54 0.1 C79.13 0.48, 89.9 4.09, 97.92 8.07 C105.93 12.06, 113.92 17.88, 117.62 24.01 C121.32 30.14, 121.8 38.4, 120.12 44.87 C118.44 51.34, 114.07 58.05, 107.52 62.84 C100.97 67.63, 90.23 71.64, 80.81 73.62 C71.39 75.59, 60.91 75.79, 51 74.7 C41.1 73.62, 29.32 71.15, 21.38 67.11 C13.43 63.06, 6.83 56.42, 3.32 50.45 C-0.19 44.48, -1.25 37.55, 0.33 31.3 C1.9 25.05, 6.2 17.68, 12.77 12.97 C19.34 8.26, 29.7 4.97, 39.76 3.04 C49.82 1.11, 67.18 1.58, 73.14 1.38 C79.11 1.18, 75.79 1.14, 75.55 1.84 M46.39 -0.1 C55.8 -1.93, 67.73 -0.09, 77.45 1.65 C87.16 3.4, 97.87 5.65, 104.67 10.35 C111.48 15.06, 115.85 23.33, 118.3 29.88 C120.75 36.42, 122.21 43.97, 119.37 49.62 C116.54 55.28, 108.66 59.42, 101.28 63.83 C93.91 68.24, 84.84 74.45, 75.14 76.09 C65.43 77.72, 52.48 75.62, 43.05 73.64 C33.62 71.66, 25.43 68.3, 18.56 64.19 C11.7 60.07, 4.43 54.97, 1.87 48.96 C-0.69 42.95, 0.32 34.35, 3.22 28.12 C6.13 21.89, 12.07 16.31, 19.29 11.59 C26.5 6.86, 41.93 1.53, 46.52 -0.25 C51.12 -2.03, 46.95 -0.18, 46.84 0.92" stroke="none" stroke-width="0" fill="#fff"></path><path d="M53.65 0.01 C63.19 -1.18, 75.48 0.93, 84.64 3.59 C93.8 6.26, 102.81 10.99, 108.61 16.01 C114.41 21.02, 118.39 27.4, 119.46 33.68 C120.52 39.96, 118.94 47.96, 115.01 53.68 C111.08 59.4, 103.84 64.3, 95.88 67.99 C87.92 71.69, 77.31 74.89, 67.23 75.85 C57.15 76.81, 44.62 76.23, 35.42 73.75 C26.21 71.27, 17.97 66.22, 11.99 60.96 C6.01 55.71, 0.53 48.42, -0.48 42.22 C-1.49 36.03, 1.9 29.65, 5.93 23.8 C9.95 17.95, 14.42 11.08, 23.68 7.13 C32.95 3.18, 54.3 0.94, 61.51 0.09 C68.72 -0.76, 66.93 1.31, 66.95 2.04 M62.58 -0.78 C72.34 -1.06, 85.46 1.53, 93.84 5.24 C102.23 8.94, 108.35 15.9, 112.9 21.45 C117.46 26.99, 121.52 32.58, 121.19 38.52 C120.85 44.47, 116.44 51.65, 110.88 57.13 C105.33 62.6, 96.77 68.18, 87.85 71.36 C78.92 74.55, 67.51 76.68, 57.31 76.24 C47.12 75.8, 34.95 71.9, 26.68 68.71 C18.41 65.52, 12.02 62.42, 7.71 57.08 C3.4 51.74, 0.44 43.04, 0.81 36.68 C1.17 30.31, 4.81 24.52, 9.9 18.9 C14.99 13.28, 22.66 6.34, 31.35 2.95 C40.05 -0.44, 56.68 -1.28, 62.06 -1.45 C67.44 -1.61, 63.3 0.93, 63.63 1.99" stroke="#fff" stroke-width="1" fill="none"></path></g><g transform="translate(547.4657357036077 10) rotate(0 53.5 25.5)"><text x="53.5" y="18.5" font-family="Virgil, Segoe UI Emoji" font-size="20px" fill="#000000" text-anchor="middle" style="white-space: pre;" direction="ltr">Whitelisted</text><text x="53.5" y="44" font-family="Virgil, Segoe UI Emoji" font-size="20px" fill="#000000" text-anchor="middle" style="white-space: pre;" direction="ltr">Emails</text></g><g stroke-linecap="round" transform="translate(567.4702102535449 68.86141932976824) rotate(0 31.243501319478924 20.731669099841127)"><path d="M0 0 C0 0, 0 0, 0 0 M0 0 C0 0, 0 0, 0 0 M0.13 12.04 C3.91 7.69, 7.69 3.35, 10.63 -0.03 M0.13 12.04 C3.98 7.62, 7.82 3.2, 10.63 -0.03 M0.27 24.08 C8.6 14.5, 16.93 4.92, 21.26 -0.07 M0.27 24.08 C5.49 18.07, 10.71 12.06, 21.26 -0.07 M-0.26 36.88 C8.24 27.1, 16.74 17.33, 31.89 -0.1 M-0.26 36.88 C11.12 23.79, 22.5 10.7, 31.89 -0.1 M3.81 44.39 C17.52 28.62, 31.23 12.84, 42.52 -0.14 M3.81 44.39 C12.39 34.52, 20.97 24.65, 42.52 -0.14 M14.44 44.36 C24.19 33.14, 33.95 21.92, 53.15 -0.17 M14.44 44.36 C24.42 32.87, 34.4 21.39, 53.15 -0.17 M25.07 44.32 C35.28 32.58, 45.48 20.84, 63.12 0.55 M25.07 44.32 C36.58 31.08, 48.09 17.84, 63.12 0.55 M35.7 44.29 C45.9 32.55, 56.11 20.82, 63.26 12.59 M35.7 44.29 C46.68 31.66, 57.66 19.03, 63.26 12.59 M46.33 44.25 C51.67 38.11, 57.01 31.97, 63.39 24.63 M46.33 44.25 C52.48 37.18, 58.62 30.12, 63.39 24.63 M56.31 44.97 C58.73 42.18, 61.16 39.39, 62.87 37.43 M56.31 44.97 C58.56 42.38, 60.81 39.8, 62.87 37.43 M-0.15 41.33 C-0.15 41.33, -0.15 41.33, -0.15 41.33 M-0.15 41.33 C-0.15 41.33, -0.15 41.33, -0.15 41.33 M11.89 41.2 C8.21 38, 4.53 34.8, -0.19 30.7 M11.89 41.2 C8.2 37.99, 4.51 34.78, -0.19 30.7 M24.68 41.72 C17.06 35.1, 9.44 28.47, -0.22 20.07 M24.68 41.72 C19.29 37.04, 13.91 32.35, -0.22 20.07 M36.72 41.59 C24.47 30.93, 12.21 20.28, -0.26 9.44 M36.72 41.59 C23.88 30.42, 11.03 19.25, -0.26 9.44 M48.77 41.45 C38.22 32.29, 27.68 23.13, 0.46 -0.53 M48.77 41.45 C34.9 29.41, 21.04 17.36, 0.46 -0.53 M60.81 41.32 C45.82 28.3, 30.84 15.27, 12.5 -0.67 M60.81 41.32 C42.62 25.52, 24.44 9.71, 12.5 -0.67 M66.81 35.94 C50.38 21.66, 33.96 7.38, 24.55 -0.8 M66.81 35.94 C55.03 25.7, 43.24 15.45, 24.55 -0.8 M66.77 25.31 C60.77 20.09, 54.76 14.87, 37.34 -0.28 M66.77 25.31 C56.55 16.42, 46.32 7.53, 37.34 -0.28 M66.74 14.68 C63.15 11.56, 59.55 8.43, 49.38 -0.41 M66.74 14.68 C59.88 8.72, 53.02 2.75, 49.38 -0.41 M66.71 4.05 C65.23 2.77, 63.75 1.48, 61.42 -0.54 M66.71 4.05 C65.32 2.84, 63.93 1.64, 61.42 -0.54" stroke="#ced4da" stroke-width="1" fill="none"></path><path d="M0 0 C23.13 0, 46.26 0, 62.49 0 M0 0 C18.29 0, 36.57 0, 62.49 0 M62.49 0 C62.49 13.54, 62.49 27.07, 62.49 41.46 M62.49 0 C62.49 12.08, 62.49 24.17, 62.49 41.46 M62.49 41.46 C45.55 41.46, 28.62 41.46, 0 41.46 M62.49 41.46 C44.61 41.46, 26.74 41.46, 0 41.46 M0 41.46 C0 25.11, 0 8.75, 0 0 M0 41.46 C0 32.31, 0 23.15, 0 0" stroke="#000000" stroke-width="2" fill="none"></path></g><g stroke-linecap="round"><g transform="translate(568.3731465783732 72.70396328240162) rotate(0 15.366143511948167 11.96293434694698)"><path d="M0 0 C9.62 7.49, 19.24 14.98, 30.73 23.93 M0 0 C12.18 9.49, 24.37 18.97, 30.73 23.93" stroke="#000000" stroke-width="2" fill="none"></path></g></g><mask></mask><g stroke-linecap="round"><g transform="translate(600.2407987945018 97.77309271543663) rotate(0 14.651538881000022 -14.616124377920102)"><path d="M0 0 C11.34 -11.31, 22.68 -22.63, 29.3 -29.23 M0 0 C10.46 -10.44, 20.93 -20.88, 29.3 -29.23" stroke="#000000" stroke-width="2" fill="none"></path></g></g><mask></mask><g stroke-linecap="round"><g transform="translate(571.332611067846 171.4141572520345) rotate(0 -9.878031248622165 -54.19493712456014)"><path d="M-1.13 -0.76 C-4.44 -18.65, -17.42 -90, -20.23 -107.92 M0.47 1.46 C-2.46 -16.76, -15.02 -91.79, -18.14 -109.85" stroke="#fff" stroke-width="1" fill="none"></path></g><g transform="translate(571.332611067846 171.4141572520345) rotate(0 -9.878031248622165 -54.19493712456014)"><path d="M-4.57 -85.74 C-6.58 -89.23, -11.14 -99.17, -19.2 -109.98 M-3.21 -84.18 C-9.76 -93.46, -13.93 -103.38, -17.54 -109.86" stroke="#fff" stroke-width="1" fill="none"></path></g><g transform="translate(571.332611067846 171.4141572520345) rotate(0 -9.878031248622165 -54.19493712456014)"><path d="M-24.8 -82.31 C-21.34 -86.53, -20.44 -97.4, -19.2 -109.98 M-23.44 -80.76 C-22.09 -91.34, -18.39 -102.6, -17.54 -109.86" stroke="#fff" stroke-width="1" fill="none"></path></g></g><mask></mask><g stroke-linecap="round"><g transform="translate(560.729847021854 157.13571266015373) rotate(0 -9.516242022769973 -47.20279622907256)"><path d="M-0.06 -0.16 C-3.35 -15.86, -15.5 -78.66, -18.61 -94.24 M-1.55 -1.29 C-4.99 -16.8, -16.07 -77.03, -18.97 -92.78" stroke="#fff" stroke-width="1" fill="none"></path></g><g transform="translate(560.729847021854 157.13571266015373) rotate(0 -9.516242022769973 -47.20279622907256)"><path d="M-4.03 -65.06 C-9.93 -75.39, -14.95 -85.55, -18.72 -92.17 M-2.78 -67.56 C-7.03 -73.25, -12.16 -80.49, -18.37 -91.93" stroke="#fff" stroke-width="1" fill="none"></path></g><g transform="translate(560.729847021854 157.13571266015373) rotate(0 -9.516242022769973 -47.20279622907256)"><path d="M-24.21 -61.33 C-22.2 -73.11, -19.31 -84.73, -18.72 -92.17 M-22.96 -63.83 C-22.18 -70.3, -22.26 -78.47, -18.37 -91.93" stroke="#fff" stroke-width="1" fill="none"></path></g></g><mask></mask><g stroke-linecap="round"><g transform="translate(569.227769876568 195.07337357215698) rotate(0 -8.989626424810751 -39.37708275293875)"><path d="M0.91 0.07 C-2.3 -6.25, -17.83 -24.75, -18.83 -37.57 C-19.84 -50.39, -7.47 -70.06, -5.14 -76.85 M-0.07 -0.94 C-2.95 -7.09, -15.72 -23.07, -16.62 -36.05 C-17.53 -49.03, -7.01 -71.88, -5.52 -78.82" stroke="#000000" stroke-width="1" fill="none"></path></g><g transform="translate(569.227769876568 195.07337357215698) rotate(0 -8.989626424810751 -39.37708275293875)"><path d="M-4.74 -59.52 C-5.2 -63.72, -4.16 -70.2, -6.84 -79.21 M-4.79 -58.31 C-4.12 -66.05, -5.72 -72.37, -6.16 -78.92" stroke="#000000" stroke-width="1" fill="none"></path></g><g transform="translate(569.227769876568 195.07337357215698) rotate(0 -8.989626424810751 -39.37708275293875)"><path d="M-18.32 -63.98 C-14.21 -66.78, -8.62 -71.77, -6.84 -79.21 M-18.37 -62.77 C-13.01 -68.85, -9.91 -73.63, -6.16 -78.92" stroke="#000000" stroke-width="1" fill="none"></path></g></g><mask></mask><g stroke-linecap="round"><g transform="translate(635.420384350279 196.0745664665098) rotate(0 5.6173208446522835 -38.81343697901647)"><path d="M0.01 0.68 C2.06 -5.11, 12.48 -21.1, 12.67 -34.27 C12.87 -47.43, 3.08 -70.78, 1.19 -78.3 M-1.44 -0.01 C0.42 -5.64, 11.53 -19.91, 11.79 -32.74 C12.05 -45.57, 1.84 -69.31, 0.1 -77.01" stroke="#000000" stroke-width="1" fill="none"></path></g><g transform="translate(635.420384350279 196.0745664665098) rotate(0 5.6173208446522835 -38.81343697901647)"><path d="M15.05 -58.86 C9.22 -66.07, 4.59 -71.79, -1.86 -78.04 M13.76 -58.3 C8.84 -66.92, 3.89 -72.08, 0 -77.77" stroke="#000000" stroke-width="1" fill="none"></path></g><g transform="translate(635.420384350279 196.0745664665098) rotate(0 5.6173208446522835 -38.81343697901647)"><path d="M0.28 -54.17 C-0.67 -62.95, -0.38 -70.22, -1.86 -78.04 M-1.01 -53.61 C-0.19 -64.16, 0.62 -71.15, 0 -77.77" stroke="#000000" stroke-width="1" fill="none"></path></g></g><mask></mask><g transform="translate(579.5244804699411 151.44173831979214) rotate(0 18.6129150390625 3.7702178955078125)" stroke="none"><path fill="#5c940d" d="M 2.31,-1.07 Q 2.31,-1.07 2.86,0.08 3.41,1.23 4.60,3.48 5.80,5.73 6.45,6.68 7.09,7.63 7.99,8.71 8.89,9.78 9.52,10.71 10.14,11.65 10.56,12.72 10.97,13.79 8.97,13.08 6.97,12.36 8.71,10.47 10.46,8.59 11.96,7.53 13.46,6.47 14.76,5.49 16.07,4.52 17.15,3.75 18.22,2.97 19.16,2.33 20.09,1.68 21.24,0.87 22.40,0.05 23.66,-0.84 24.93,-1.75 25.76,-2.44 26.59,-3.13 27.69,-4.05 28.79,-4.98 29.71,-5.78 30.62,-6.58 31.49,-7.46 32.36,-8.34 35.37,-9.47 38.38,-10.60 38.86,-10.32 39.33,-10.05 39.69,-9.63 40.05,-9.22 40.26,-8.71 40.47,-8.21 40.51,-7.66 40.55,-7.11 40.41,-6.58 40.27,-6.05 39.97,-5.59 39.66,-5.13 39.23,-4.79 38.80,-4.45 38.28,-4.27 37.76,-4.09 37.21,-4.08 36.66,-4.07 36.14,-4.24 35.62,-4.41 35.18,-4.74 34.73,-5.06 34.42,-5.51 34.11,-5.96 33.95,-6.49 33.80,-7.02 33.82,-7.57 33.84,-8.12 34.04,-8.63 34.24,-9.14 34.59,-9.57 34.94,-9.99 35.40,-10.28 35.87,-10.57 36.41,-10.69 36.94,-10.82 37.49,-10.77 38.03,-10.71 38.54,-10.49 39.04,-10.27 39.44,-9.89 39.84,-9.52 40.11,-9.04 40.37,-8.56 40.47,-8.02 40.56,-7.48 40.48,-6.93 40.40,-6.39 40.15,-5.90 39.90,-5.41 39.50,-5.03 39.11,-4.65 38.62,-4.41 38.12,-4.17 37.57,-4.11 37.03,-4.04 36.49,-4.15 35.95,-4.26 35.95,-4.26 35.95,-4.26 36.34,-3.70 36.72,-3.14 35.67,-2.24 34.63,-1.33 33.72,-0.61 32.82,0.10 31.83,0.88 30.84,1.65 29.84,2.27 28.84,2.89 27.75,3.41 26.66,3.92 25.65,4.61 24.63,5.30 22.97,6.30 21.30,7.30 20.34,7.97 19.38,8.64 18.14,9.72 16.90,10.80 15.68,11.89 14.46,12.99 12.88,14.59 11.30,16.18 10.36,16.93 9.42,17.67 7.33,16.62 5.24,15.57 4.80,14.24 4.36,12.91 3.55,11.69 2.74,10.48 2.01,9.33 1.29,8.18 0.51,6.82 -0.25,5.46 -0.75,4.43 -1.25,3.40 -1.78,2.23 -2.31,1.07 -2.40,0.78 -2.50,0.48 -2.52,0.18 -2.54,-0.12 -2.49,-0.42 -2.44,-0.72 -2.31,-1.01 -2.19,-1.29 -2.00,-1.53 -1.82,-1.78 -1.58,-1.97 -1.34,-2.16 -1.06,-2.29 -0.78,-2.42 -0.48,-2.48 -0.18,-2.54 0.12,-2.52 0.42,-2.51 0.72,-2.42 1.01,-2.33 1.28,-2.18 1.54,-2.02 1.76,-1.80 1.98,-1.59 2.14,-1.33 2.31,-1.07 2.31,-1.07 L 2.31,-1.07 Z"></path></g><g stroke-linecap="round" transform="translate(572.1546684582223 130.4782068256515) rotate(0 25.678863525390625 22.55889892578125)"><path d="M34.92 1.63 C40.15 2.79, 45.92 7.02, 48.76 11.05 C51.6 15.08, 53.11 21.11, 51.96 25.81 C50.81 30.51, 46.39 35.9, 41.87 39.26 C37.35 42.61, 30.28 45.72, 24.85 45.93 C19.42 46.13, 13.28 43.65, 9.3 40.5 C5.31 37.35, 1.79 31.8, 0.94 27.02 C0.09 22.25, 1.49 16.23, 4.19 11.85 C6.89 7.47, 11.52 2.27, 17.14 0.73 C22.75 -0.81, 34.01 2.21, 37.88 2.61 C41.75 3.02, 40.73 2.75, 40.36 3.16 M34.85 -0.28 C39.64 0.79, 43.65 5.41, 46.36 9.62 C49.07 13.82, 51.61 19.93, 51.13 24.95 C50.65 29.96, 47.33 36.12, 43.46 39.69 C39.6 43.27, 33.73 46.25, 27.92 46.39 C22.12 46.52, 13.15 43.87, 8.64 40.49 C4.14 37.11, 1.75 30.63, 0.87 26.11 C-0.01 21.6, 1.11 17.41, 3.39 13.4 C5.67 9.39, 9.63 4.22, 14.55 2.06 C19.46 -0.09, 29.65 0.69, 32.87 0.47 C36.1 0.26, 34.04 0.4, 33.91 0.77" stroke="#5c940d" stroke-width="1" fill="none"></path></g><g stroke-linecap="round" transform="translate(302.0731363890886 129.10491243496392) rotate(0 284.30076599121094 103.94734413516531)"><path d="M32 0 M32 0 C146.6 -1.12, 261.42 -1.51, 536.6 0 M536.6 0 C559.51 -0.23, 567.2 9.51, 568.6 32 M568.6 32 C568.03 88.81, 570.29 147.77, 568.6 175.89 M568.6 175.89 C569.93 197.05, 557.88 207.25, 536.6 207.89 M536.6 207.89 C415.53 205.59, 294.91 205.78, 32 207.89 M32 207.89 C10.36 206.91, 0.52 199.11, 0 175.89 M0 175.89 C1.89 144.73, 1.04 111.85, 0 32 M0 32 C0.18 10.07, 12.17 1.27, 32 0" stroke="#e67700" stroke-width="1.5" fill="none" stroke-dasharray="8 9"></path></g><g transform="translate(491.8032503678976 295.5924176541431) rotate(0 94.49999999999997 13)"><text x="94.5" y="18" font-family="Virgil, Segoe UI Emoji" font-size="20px" fill="#e67700" text-anchor="middle" style="white-space: pre;" direction="ltr">Cloudflare Network</text></g><g stroke-linecap="round" transform="translate(370.7940454573508 185.13269154521078) rotate(0 15.343102899673681 28.640458746057476)"><path d="M0 0 C0 0, 0 0, 0 0 M0 0 C0 0, 0 0, 0 0 M0.13 12.04 C3.92 7.69, 7.71 3.33, 10.63 -0.03 M0.13 12.04 C4.06 7.52, 7.99 3, 10.63 -0.03 M0.27 24.08 C8.5 14.61, 16.73 5.14, 21.26 -0.07 M0.27 24.08 C6.24 17.21, 12.21 10.34, 21.26 -0.07 M-0.26 36.88 C10.65 24.33, 21.55 11.79, 31.23 0.65 M-0.26 36.88 C10.33 24.7, 20.91 12.53, 31.23 0.65 M-0.12 48.92 C7.38 40.28, 14.89 31.65, 31.37 12.69 M-0.12 48.92 C10.27 36.97, 20.66 25.01, 31.37 12.69 M1.98 58.69 C12.57 46.52, 23.15 34.34, 31.5 24.73 M1.98 58.69 C12.35 46.76, 22.73 34.83, 31.5 24.73 M12.61 58.66 C16.49 54.19, 20.37 49.73, 31.63 36.77 M12.61 58.66 C19.05 51.25, 25.5 43.83, 31.63 36.77 M23.24 58.63 C24.89 56.73, 26.53 54.84, 31.11 49.57 M23.24 58.63 C25.22 56.35, 27.2 54.07, 31.11 49.57 M0.32 57.56 C0.32 57.56, 0.32 57.56, 0.32 57.56 M0.32 57.56 C0.32 57.56, 0.32 57.56, 0.32 57.56 M12.36 57.42 C8.58 54.14, 4.81 50.86, 0.28 46.93 M12.36 57.42 C9.76 55.16, 7.16 52.91, 0.28 46.93 M24.4 57.29 C15.95 49.94, 7.49 42.6, 0.25 36.3 M24.4 57.29 C19.27 52.83, 14.13 48.37, 0.25 36.3 M33.42 54.53 C23.89 46.25, 14.36 37.96, 0.21 25.67 M33.42 54.53 C21.23 43.94, 9.05 33.35, 0.21 25.67 M33.39 43.9 C26.22 37.67, 19.06 31.44, 0.18 15.04 M33.39 43.9 C24.16 35.88, 14.93 27.86, 0.18 15.04 M33.35 33.27 C21.63 23.08, 9.9 12.89, 0.14 4.41 M33.35 33.27 C20.76 22.33, 8.17 11.38, 0.14 4.41 M33.32 22.64 C22.07 12.87, 10.83 3.09, 3.13 -3.6 M33.32 22.64 C24.04 14.58, 14.77 6.52, 3.13 -3.6 M33.28 12.01 C27.22 6.74, 21.15 1.46, 15.17 -3.73 M33.28 12.01 C28.38 7.75, 23.48 3.49, 15.17 -3.73" stroke="#ced4da" stroke-width="1" fill="none"></path><path d="M0 0 C7.27 0, 14.53 0, 30.69 0 M0 0 C10.22 0, 20.45 0, 30.69 0 M30.69 0 C30.69 13.68, 30.69 27.36, 30.69 57.28 M30.69 0 C30.69 12.6, 30.69 25.19, 30.69 57.28 M30.69 57.28 C23.88 57.28, 17.08 57.28, 0 57.28 M30.69 57.28 C18.45 57.28, 6.21 57.28, 0 57.28 M0 57.28 C0 34.75, 0 12.22, 0 0 M0 57.28 C0 35.44, 0 13.59, 0 0" stroke="#e67700" stroke-width="2" fill="none"></path></g><g transform="translate(333.0411295465365 253.71024443741015) rotate(0 49.5 21)"><text x="49.5" y="14" font-family="Virgil, Segoe UI Emoji" font-size="16.46769849913177px" fill="#e67700" text-anchor="middle" style="white-space: pre;" direction="ltr">Cloudflare </text><text x="49.5" y="35" font-family="Virgil, Segoe UI Emoji" font-size="16.46769849913177px" fill="#e67700" text-anchor="middle" style="white-space: pre;" direction="ltr">Edge Server</text></g><g stroke-linecap="round"><g transform="translate(374.1678926944681 190.60824430029515) rotate(0 11.763045556416444 8.526512829121202e-14)"><path d="M0 0 C3.92 0, 19.61 0, 23.53 0 M0 0 C3.92 0, 19.61 0, 23.53 0" stroke="#e67700" stroke-width="2" fill="none"></path></g></g><mask></mask><g stroke-linecap="round"><g transform="translate(374.0554331345218 195.88103485284842) rotate(0 11.763045556416444 8.526512829121202e-14)"><path d="M0 0 C3.92 0, 19.61 0, 23.53 0 M0 0 C3.92 0, 19.61 0, 23.53 0" stroke="#e67700" stroke-width="2" fill="none"></path></g></g><mask></mask><g stroke-linecap="round"><g transform="translate(374.03000261631877 201.15382540540236) rotate(0 11.763045556416444 8.526512829121202e-14)"><path d="M0 0 C3.92 0, 19.61 0, 23.53 0 M0 0 C3.92 0, 19.61 0, 23.53 0" stroke="#e67700" stroke-width="2" fill="none"></path></g></g><mask></mask><g stroke-linecap="round"><g transform="translate(374.03000261631877 206.42661595795596) rotate(0 11.763045556416444 8.526512829121202e-14)"><path d="M0 0 C3.92 0, 19.61 0, 23.53 0 M0 0 C3.92 0, 19.61 0, 23.53 0" stroke="#e67700" stroke-width="2" fill="none"></path></g></g><mask></mask><g stroke-linecap="round" transform="translate(10.937450869033597 190.7038236646198) rotate(0 63.94191786606946 38.268516949888834)"><path d="M1.75 1.11 C46.98 -0.12, 94.72 -0.1, 127.25 -1.48 M0.85 0.36 C34.14 0.62, 68.96 0.82, 128.36 -0.78 M126.73 -1.74 C127.39 19.91, 129.88 37.94, 127.12 77.48 M128.44 -0.47 C126.95 15.98, 128.26 30.87, 128.09 77.37 M126.07 77.48 C88.19 75.46, 47.76 78.36, 0.91 75.14 M127.36 76.48 C102.97 76.81, 77.01 76.57, -0.18 77.32 M-0.98 74.96 C1.75 60.15, -1.35 41.29, -1.09 1.42 M0.51 75.73 C0.68 50.29, -0.74 23.1, -0.25 -0.34" stroke="#000000" stroke-width="1" fill="none"></path></g><g stroke-linecap="round"><g transform="translate(9.861853118138384 201.42035805686396) rotate(0 64.47720761500585 0.23272499988320305)"><path d="M1.05 0.66 C22.68 0.69, 107.45 -0.24, 128.82 -0.42 M0.14 -0.03 C21.7 0.2, 106.43 0.77, 127.85 0.89" stroke="#000000" stroke-width="1" fill="none"></path></g></g><mask></mask><g stroke-linecap="round" transform="translate(15.425486337988474 194.9753934646286) rotate(0 2.5009765625 2.5009765625)"><path d="M5 2.5 C5 2.65, 4.99 2.79, 4.96 2.94 C4.94 3.08, 4.9 3.22, 4.85 3.36 C4.8 3.49, 4.74 3.63, 4.67 3.75 C4.59 3.88, 4.51 4, 4.42 4.11 C4.32 4.22, 4.22 4.32, 4.11 4.42 C4 4.51, 3.88 4.59, 3.75 4.67 C3.63 4.74, 3.49 4.8, 3.36 4.85 C3.22 4.9, 3.08 4.94, 2.94 4.96 C2.79 4.99, 2.65 5, 2.5 5 C2.36 5, 2.21 4.99, 2.07 4.96 C1.92 4.94, 1.78 4.9, 1.65 4.85 C1.51 4.8, 1.38 4.74, 1.25 4.67 C1.13 4.59, 1 4.51, 0.89 4.42 C0.78 4.32, 0.68 4.22, 0.59 4.11 C0.49 4, 0.41 3.88, 0.34 3.75 C0.26 3.63, 0.2 3.49, 0.15 3.36 C0.1 3.22, 0.06 3.08, 0.04 2.94 C0.01 2.79, 0 2.65, 0 2.5 C0 2.36, 0.01 2.21, 0.04 2.07 C0.06 1.92, 0.1 1.78, 0.15 1.65 C0.2 1.51, 0.26 1.38, 0.34 1.25 C0.41 1.13, 0.49 1, 0.59 0.89 C0.68 0.78, 0.78 0.68, 0.89 0.59 C1 0.49, 1.13 0.41, 1.25 0.34 C1.38 0.26, 1.51 0.2, 1.65 0.15 C1.78 0.1, 1.92 0.06, 2.07 0.04 C2.21 0.01, 2.36 0, 2.5 0 C2.65 0, 2.79 0.01, 2.94 0.04 C3.08 0.06, 3.22 0.1, 3.36 0.15 C3.49 0.2, 3.63 0.26, 3.75 0.34 C3.88 0.41, 4 0.49, 4.11 0.59 C4.22 0.68, 4.32 0.78, 4.42 0.89 C4.51 1, 4.59 1.13, 4.67 1.25 C4.74 1.38, 4.8 1.51, 4.85 1.65 C4.9 1.78, 4.94 1.92, 4.96 2.07 C4.99 2.21, 5 2.43, 5 2.5 C5.01 2.57, 5.01 2.43, 5 2.5" stroke="none" stroke-width="0" fill="#fa5252"></path><path d="M5 2.5 C5 2.65, 4.99 2.79, 4.96 2.94 C4.94 3.08, 4.9 3.22, 4.85 3.36 C4.8 3.49, 4.74 3.63, 4.67 3.75 C4.59 3.88, 4.51 4, 4.42 4.11 C4.32 4.22, 4.22 4.32, 4.11 4.42 C4 4.51, 3.88 4.59, 3.75 4.67 C3.63 4.74, 3.49 4.8, 3.36 4.85 C3.22 4.9, 3.08 4.94, 2.94 4.96 C2.79 4.99, 2.65 5, 2.5 5 C2.36 5, 2.21 4.99, 2.07 4.96 C1.92 4.94, 1.78 4.9, 1.65 4.85 C1.51 4.8, 1.38 4.74, 1.25 4.67 C1.13 4.59, 1 4.51, 0.89 4.42 C0.78 4.32, 0.68 4.22, 0.59 4.11 C0.49 4, 0.41 3.88, 0.34 3.75 C0.26 3.63, 0.2 3.49, 0.15 3.36 C0.1 3.22, 0.06 3.08, 0.04 2.94 C0.01 2.79, 0 2.65, 0 2.5 C0 2.36, 0.01 2.21, 0.04 2.07 C0.06 1.92, 0.1 1.78, 0.15 1.65 C0.2 1.51, 0.26 1.38, 0.34 1.25 C0.41 1.13, 0.49 1, 0.59 0.89 C0.68 0.78, 0.78 0.68, 0.89 0.59 C1 0.49, 1.13 0.41, 1.25 0.34 C1.38 0.26, 1.51 0.2, 1.65 0.15 C1.78 0.1, 1.92 0.06, 2.07 0.04 C2.21 0.01, 2.36 0, 2.5 0 C2.65 0, 2.79 0.01, 2.94 0.04 C3.08 0.06, 3.22 0.1, 3.36 0.15 C3.49 0.2, 3.63 0.26, 3.75 0.34 C3.88 0.41, 4 0.49, 4.11 0.59 C4.22 0.68, 4.32 0.78, 4.42 0.89 C4.51 1, 4.59 1.13, 4.67 1.25 C4.74 1.38, 4.8 1.51, 4.85 1.65 C4.9 1.78, 4.94 1.92, 4.96 2.07 C4.99 2.21, 5 2.43, 5 2.5 C5.01 2.57, 5.01 2.43, 5 2.5" stroke="#000000" stroke-width="1" fill="none"></path></g><g stroke-linecap="round" transform="translate(25.688181650488474 194.9753934646286) rotate(0 2.5009765625 2.5009765625)"><path d="M5 2.5 C5 2.65, 4.99 2.79, 4.96 2.94 C4.94 3.08, 4.9 3.22, 4.85 3.36 C4.8 3.49, 4.74 3.63, 4.67 3.75 C4.59 3.88, 4.51 4, 4.42 4.11 C4.32 4.22, 4.22 4.32, 4.11 4.42 C4 4.51, 3.88 4.59, 3.75 4.67 C3.63 4.74, 3.49 4.8, 3.36 4.85 C3.22 4.9, 3.08 4.94, 2.94 4.96 C2.79 4.99, 2.65 5, 2.5 5 C2.36 5, 2.21 4.99, 2.07 4.96 C1.92 4.94, 1.78 4.9, 1.65 4.85 C1.51 4.8, 1.38 4.74, 1.25 4.67 C1.13 4.59, 1 4.51, 0.89 4.42 C0.78 4.32, 0.68 4.22, 0.59 4.11 C0.49 4, 0.41 3.88, 0.34 3.75 C0.26 3.63, 0.2 3.49, 0.15 3.36 C0.1 3.22, 0.06 3.08, 0.04 2.94 C0.01 2.79, 0 2.65, 0 2.5 C0 2.36, 0.01 2.21, 0.04 2.07 C0.06 1.92, 0.1 1.78, 0.15 1.65 C0.2 1.51, 0.26 1.38, 0.34 1.25 C0.41 1.13, 0.49 1, 0.59 0.89 C0.68 0.78, 0.78 0.68, 0.89 0.59 C1 0.49, 1.13 0.41, 1.25 0.34 C1.38 0.26, 1.51 0.2, 1.65 0.15 C1.78 0.1, 1.92 0.06, 2.07 0.04 C2.21 0.01, 2.36 0, 2.5 0 C2.65 0, 2.79 0.01, 2.94 0.04 C3.08 0.06, 3.22 0.1, 3.36 0.15 C3.49 0.2, 3.63 0.26, 3.75 0.34 C3.88 0.41, 4 0.49, 4.11 0.59 C4.22 0.68, 4.32 0.78, 4.42 0.89 C4.51 1, 4.59 1.13, 4.67 1.25 C4.74 1.38, 4.8 1.51, 4.85 1.65 C4.9 1.78, 4.94 1.92, 4.96 2.07 C4.99 2.21, 5 2.43, 5 2.5 C5.01 2.57, 5.01 2.43, 5 2.5" stroke="none" stroke-width="0" fill="#fab005"></path><path d="M5 2.5 C5 2.65, 4.99 2.79, 4.96 2.94 C4.94 3.08, 4.9 3.22, 4.85 3.36 C4.8 3.49, 4.74 3.63, 4.67 3.75 C4.59 3.88, 4.51 4, 4.42 4.11 C4.32 4.22, 4.22 4.32, 4.11 4.42 C4 4.51, 3.88 4.59, 3.75 4.67 C3.63 4.74, 3.49 4.8, 3.36 4.85 C3.22 4.9, 3.08 4.94, 2.94 4.96 C2.79 4.99, 2.65 5, 2.5 5 C2.36 5, 2.21 4.99, 2.07 4.96 C1.92 4.94, 1.78 4.9, 1.65 4.85 C1.51 4.8, 1.38 4.74, 1.25 4.67 C1.13 4.59, 1 4.51, 0.89 4.42 C0.78 4.32, 0.68 4.22, 0.59 4.11 C0.49 4, 0.41 3.88, 0.34 3.75 C0.26 3.63, 0.2 3.49, 0.15 3.36 C0.1 3.22, 0.06 3.08, 0.04 2.94 C0.01 2.79, 0 2.65, 0 2.5 C0 2.36, 0.01 2.21, 0.04 2.07 C0.06 1.92, 0.1 1.78, 0.15 1.65 C0.2 1.51, 0.26 1.38, 0.34 1.25 C0.41 1.13, 0.49 1, 0.59 0.89 C0.68 0.78, 0.78 0.68, 0.89 0.59 C1 0.49, 1.13 0.41, 1.25 0.34 C1.38 0.26, 1.51 0.2, 1.65 0.15 C1.78 0.1, 1.92 0.06, 2.07 0.04 C2.21 0.01, 2.36 0, 2.5 0 C2.65 0, 2.79 0.01, 2.94 0.04 C3.08 0.06, 3.22 0.1, 3.36 0.15 C3.49 0.2, 3.63 0.26, 3.75 0.34 C3.88 0.41, 4 0.49, 4.11 0.59 C4.22 0.68, 4.32 0.78, 4.42 0.89 C4.51 1, 4.59 1.13, 4.67 1.25 C4.74 1.38, 4.8 1.51, 4.85 1.65 C4.9 1.78, 4.94 1.92, 4.96 2.07 C4.99 2.21, 5 2.43, 5 2.5 C5.01 2.57, 5.01 2.43, 5 2.5" stroke="#000000" stroke-width="1" fill="none"></path></g><g stroke-linecap="round" transform="translate(36.40159811683466 195.4261146184748) rotate(0 2.5009765625 2.5009765625)"><path d="M5 2.5 C5 2.65, 4.99 2.79, 4.96 2.94 C4.94 3.08, 4.9 3.22, 4.85 3.36 C4.8 3.49, 4.74 3.63, 4.67 3.75 C4.59 3.88, 4.51 4, 4.42 4.11 C4.32 4.22, 4.22 4.32, 4.11 4.42 C4 4.51, 3.88 4.59, 3.75 4.67 C3.63 4.74, 3.49 4.8, 3.36 4.85 C3.22 4.9, 3.08 4.94, 2.94 4.96 C2.79 4.99, 2.65 5, 2.5 5 C2.36 5, 2.21 4.99, 2.07 4.96 C1.92 4.94, 1.78 4.9, 1.65 4.85 C1.51 4.8, 1.38 4.74, 1.25 4.67 C1.13 4.59, 1 4.51, 0.89 4.42 C0.78 4.32, 0.68 4.22, 0.59 4.11 C0.49 4, 0.41 3.88, 0.34 3.75 C0.26 3.63, 0.2 3.49, 0.15 3.36 C0.1 3.22, 0.06 3.08, 0.04 2.94 C0.01 2.79, 0 2.65, 0 2.5 C0 2.36, 0.01 2.21, 0.04 2.07 C0.06 1.92, 0.1 1.78, 0.15 1.65 C0.2 1.51, 0.26 1.38, 0.34 1.25 C0.41 1.13, 0.49 1, 0.59 0.89 C0.68 0.78, 0.78 0.68, 0.89 0.59 C1 0.49, 1.13 0.41, 1.25 0.34 C1.38 0.26, 1.51 0.2, 1.65 0.15 C1.78 0.1, 1.92 0.06, 2.07 0.04 C2.21 0.01, 2.36 0, 2.5 0 C2.65 0, 2.79 0.01, 2.94 0.04 C3.08 0.06, 3.22 0.1, 3.36 0.15 C3.49 0.2, 3.63 0.26, 3.75 0.34 C3.88 0.41, 4 0.49, 4.11 0.59 C4.22 0.68, 4.32 0.78, 4.42 0.89 C4.51 1, 4.59 1.13, 4.67 1.25 C4.74 1.38, 4.8 1.51, 4.85 1.65 C4.9 1.78, 4.94 1.92, 4.96 2.07 C4.99 2.21, 5 2.43, 5 2.5 C5.01 2.57, 5.01 2.43, 5 2.5" stroke="none" stroke-width="0" fill="#40c057"></path><path d="M5 2.5 C5 2.65, 4.99 2.79, 4.96 2.94 C4.94 3.08, 4.9 3.22, 4.85 3.36 C4.8 3.49, 4.74 3.63, 4.67 3.75 C4.59 3.88, 4.51 4, 4.42 4.11 C4.32 4.22, 4.22 4.32, 4.11 4.42 C4 4.51, 3.88 4.59, 3.75 4.67 C3.63 4.74, 3.49 4.8, 3.36 4.85 C3.22 4.9, 3.08 4.94, 2.94 4.96 C2.79 4.99, 2.65 5, 2.5 5 C2.36 5, 2.21 4.99, 2.07 4.96 C1.92 4.94, 1.78 4.9, 1.65 4.85 C1.51 4.8, 1.38 4.74, 1.25 4.67 C1.13 4.59, 1 4.51, 0.89 4.42 C0.78 4.32, 0.68 4.22, 0.59 4.11 C0.49 4, 0.41 3.88, 0.34 3.75 C0.26 3.63, 0.2 3.49, 0.15 3.36 C0.1 3.22, 0.06 3.08, 0.04 2.94 C0.01 2.79, 0 2.65, 0 2.5 C0 2.36, 0.01 2.21, 0.04 2.07 C0.06 1.92, 0.1 1.78, 0.15 1.65 C0.2 1.51, 0.26 1.38, 0.34 1.25 C0.41 1.13, 0.49 1, 0.59 0.89 C0.68 0.78, 0.78 0.68, 0.89 0.59 C1 0.49, 1.13 0.41, 1.25 0.34 C1.38 0.26, 1.51 0.2, 1.65 0.15 C1.78 0.1, 1.92 0.06, 2.07 0.04 C2.21 0.01, 2.36 0, 2.5 0 C2.65 0, 2.79 0.01, 2.94 0.04 C3.08 0.06, 3.22 0.1, 3.36 0.15 C3.49 0.2, 3.63 0.26, 3.75 0.34 C3.88 0.41, 4 0.49, 4.11 0.59 C4.22 0.68, 4.32 0.78, 4.42 0.89 C4.51 1, 4.59 1.13, 4.67 1.25 C4.74 1.38, 4.8 1.51, 4.85 1.65 C4.9 1.78, 4.94 1.92, 4.96 2.07 C4.99 2.21, 5 2.43, 5 2.5 C5.01 2.57, 5.01 2.43, 5 2.5" stroke="#000000" stroke-width="1" fill="none"></path></g><g stroke-opacity="0.9" fill-opacity="0.9" stroke-linecap="round" transform="translate(52.42865910646188 211.47848349649064) rotate(0 21.36010126968786 21.360101269687874)"><path d="M28.56 1.11 C32.67 2.74, 37.12 8.03, 39.49 12 C41.86 15.97, 43.66 20.64, 42.79 24.93 C41.93 29.22, 37.9 34.68, 34.3 37.72 C30.7 40.77, 25.71 43.17, 21.2 43.21 C16.7 43.25, 10.68 41.28, 7.26 37.98 C3.84 34.68, 1.21 27.98, 0.7 23.41 C0.19 18.83, 1.93 14.22, 4.2 10.53 C6.47 6.84, 9.88 2.65, 14.34 1.24 C18.81 -0.16, 28 1.54, 31 2.09 C34 2.64, 32.41 4.18, 32.36 4.54 M17.47 1.12 C21.88 -0.21, 28.69 -0.76, 32.71 1.31 C36.73 3.38, 40.07 9.05, 41.59 13.52 C43.1 17.99, 43.13 23.76, 41.8 28.12 C40.48 32.48, 37.75 37.27, 33.63 39.67 C29.51 42.07, 21.85 43.35, 17.07 42.52 C12.29 41.69, 7.99 37.97, 4.95 34.7 C1.92 31.44, -1.06 27.47, -1.14 22.94 C-1.22 18.41, 1.19 11.06, 4.45 7.52 C7.7 3.98, 16.11 2.75, 18.39 1.71 C20.67 0.67, 18.05 1.01, 18.13 1.29" stroke="none" stroke-width="0" fill="#04aaf7"></path><path d="M17.91 0.27 C22.42 -0.58, 29.26 0.94, 33.18 3.39 C37.09 5.85, 39.98 10.59, 41.41 14.99 C42.83 19.39, 43.26 25.75, 41.73 29.79 C40.2 33.83, 36.38 37.08, 32.23 39.24 C28.07 41.4, 21.5 43.6, 16.81 42.77 C12.12 41.94, 7.04 37.95, 4.09 34.26 C1.15 30.57, -1.13 24.96, -0.87 20.62 C-0.61 16.28, 2.11 11.71, 5.65 8.21 C9.18 4.72, 17.41 1.09, 20.35 -0.36 C23.29 -1.81, 23.29 -1.05, 23.32 -0.5 M27.97 1.37 C32.31 2.6, 36.23 6, 38.87 9.73 C41.52 13.45, 44.42 19.17, 43.86 23.72 C43.29 28.28, 39.19 33.77, 35.46 37.05 C31.74 40.32, 25.96 43.28, 21.49 43.37 C17.02 43.47, 12.27 40.24, 8.66 37.62 C5.04 35.01, 0.76 32.13, -0.21 27.69 C-1.18 23.24, 0.94 15.06, 2.84 10.95 C4.74 6.84, 6.99 4.85, 11.19 3.04 C15.4 1.22, 25.44 0.12, 28.08 0.04 C30.72 -0.05, 27.4 1.88, 27.05 2.52" stroke="#000000" stroke-width="1" fill="none"></path></g><g stroke-linecap="round"><g transform="translate(79.50682316843749 227.70283556094824) rotate(0 -3.4640896553595866 6.480451691366937)" fill-rule="evenodd"><path d="M0 0 L-1.83 -0.41 L-7.57 -6.27 L-9.75 -6.1 L-11.36 -4.35 L-12.61 2.37 L-11.27 6.74 L-17.42 8.89 L-18 11.42 L-17.2 13.64 L-15.01 14.04 L-12.38 13.35 L-8.7 9.48 L-3.62 17.87 L-1.49 19.38 L-0.42 18.17 L-3.78 4.8 L-1.52 3.64 L1.39 4.35 L3.16 5.87 L6.21 6.29 L9.24 5.87 L10.81 3.22 L10.8 0.63 L4.22 1.11 L5.49 -5.76 L4.23 -6.26 L2.47 -5.35 L-0.24 -0.92 L0 0" stroke="none" stroke-width="0" fill="#40c057" fill-rule="evenodd"></path><path d="M0 0 C-0.31 -0.07, -0.57 0.63, -1.83 -0.41 C-3.09 -1.46, -5.98 -5.62, -7.57 -6.27 C-9.16 -6.93, -10.52 -5.79, -11.36 -4.35 C-12.2 -2.91, -12.63 0.53, -12.61 2.37 C-12.6 4.22, -10.47 5.65, -11.27 6.74 C-12.07 7.83, -16.44 7.74, -17.42 8.89 C-18.41 10.04, -18.04 12.9, -17.2 13.64 C-16.36 14.39, -13.8 14.04, -12.38 13.35 C-10.96 12.66, -10.16 8.72, -8.7 9.48 C-7.24 10.23, -5 16.42, -3.62 17.87 C-2.24 19.32, -0.39 20.35, -0.42 18.17 C-0.44 15.99, -4.08 7.1, -3.78 4.8 C-3.48 2.5, 0.23 4.17, 1.39 4.35 C2.54 4.53, 1.85 5.61, 3.16 5.87 C4.47 6.12, 7.96 6.74, 9.24 5.87 C10.51 5, 11.64 1.43, 10.8 0.63 C9.97 -0.16, 5.11 2.18, 4.22 1.11 C3.34 0.04, 5.78 -4.68, 5.49 -5.76 C5.19 -6.84, 3.43 -6.15, 2.47 -5.35 C1.52 -4.54, 0.17 -1.81, -0.24 -0.92 C-0.65 -0.03, -0.04 -0.15, 0 0 M0 0 C-0.31 -0.07, -0.57 0.63, -1.83 -0.41 C-3.09 -1.46, -5.98 -5.62, -7.57 -6.27 C-9.16 -6.93, -10.52 -5.79, -11.36 -4.35 C-12.2 -2.91, -12.63 0.53, -12.61 2.37 C-12.6 4.22, -10.47 5.65, -11.27 6.74 C-12.07 7.83, -16.44 7.74, -17.42 8.89 C-18.41 10.04, -18.04 12.9, -17.2 13.64 C-16.36 14.39, -13.8 14.04, -12.38 13.35 C-10.96 12.66, -10.16 8.72, -8.7 9.48 C-7.24 10.23, -5 16.42, -3.62 17.87 C-2.24 19.32, -0.39 20.35, -0.42 18.17 C-0.44 15.99, -4.08 7.1, -3.78 4.8 C-3.48 2.5, 0.23 4.17, 1.39 4.35 C2.54 4.53, 1.85 5.61, 3.16 5.87 C4.47 6.12, 7.96 6.74, 9.24 5.87 C10.51 5, 11.64 1.43, 10.8 0.63 C9.97 -0.16, 5.11 2.18, 4.22 1.11 C3.34 0.04, 5.78 -4.68, 5.49 -5.76 C5.19 -6.84, 3.43 -6.15, 2.47 -5.35 C1.52 -4.54, 0.17 -1.81, -0.24 -0.92 C-0.65 -0.03, -0.04 -0.15, 0 0" stroke="#087f5b" stroke-width="1" fill="none"></path></g></g><mask></mask><g stroke-linecap="round"><g stroke-opacity="0.9" fill-opacity="0.9" transform="translate(53.48772158048942 232.44135705967165) rotate(0 20.664808695954623 0.34990190556476364)"><path d="M-0.38 -0.89 C6.5 -0.83, 34.63 -0.4, 41.71 -0.08 M1.62 1.26 C8.28 1.55, 33.94 1.75, 40.56 1.41" stroke="#000000" stroke-width="1" fill="none"></path></g></g><mask></mask><g stroke-linecap="round"><g stroke-opacity="0.9" fill-opacity="0.9" transform="translate(58.58305061026377 217.0068281327055) rotate(0 14.65930330192431 2.6276150615775293)"><path d="M0 0 C0.13 0.38, 0.09 1.58, 0.77 2.28 C1.46 2.97, 2.81 3.68, 4.1 4.19 C5.4 4.7, 6.64 5.13, 8.54 5.34 C10.43 5.55, 12.97 5.55, 15.48 5.45 C17.99 5.34, 21.44 5.28, 23.58 4.71 C25.72 4.14, 27.36 2.86, 28.32 2.03 C29.27 1.2, 29.15 0.12, 29.32 -0.26 M0 0 C0.13 0.38, 0.09 1.58, 0.77 2.28 C1.46 2.97, 2.81 3.68, 4.1 4.19 C5.4 4.7, 6.64 5.13, 8.54 5.34 C10.43 5.55, 12.97 5.55, 15.48 5.45 C17.99 5.34, 21.44 5.28, 23.58 4.71 C25.72 4.14, 27.36 2.86, 28.32 2.03 C29.27 1.2, 29.15 0.12, 29.32 -0.26" stroke="#000000" stroke-width="1" fill="none"></path></g></g><mask></mask><g stroke-opacity="0.9" fill-opacity="0.9" stroke-linecap="round" transform="translate(66.65696653418324 210.09595386689796) rotate(0 7.764217176558056 22.41115194065472)"><path d="M7.62 0.62 C9.13 0.41, 11.79 3.19, 13.16 6.04 C14.54 8.89, 15.75 13.05, 15.88 17.72 C16.02 22.38, 15.01 29.83, 13.98 34.03 C12.95 38.22, 11.36 41.38, 9.73 42.89 C8.11 44.39, 5.62 44.47, 4.24 43.07 C2.87 41.67, 2.18 38.62, 1.48 34.47 C0.78 30.32, -0.25 23.19, 0.05 18.16 C0.34 13.13, 1.8 7.15, 3.24 4.28 C4.68 1.42, 7.54 1.59, 8.68 0.97 C9.82 0.36, 10.25 0.26, 10.07 0.57 M10.42 0.5 C11.9 1.04, 12.39 4.65, 13.01 8.45 C13.64 12.24, 14.08 18.69, 14.17 23.27 C14.25 27.85, 14.52 32.18, 13.53 35.91 C12.54 39.65, 9.72 44.87, 8.22 45.67 C6.71 46.46, 6.06 43.12, 4.52 40.7 C2.98 38.27, -0.49 35.6, -1.03 31.12 C-1.56 26.64, 0.51 18.3, 1.32 13.81 C2.13 9.33, 2.65 6.28, 3.85 4.21 C5.04 2.14, 7.79 1.99, 8.5 1.38 C9.21 0.77, 7.83 0.53, 8.11 0.55" stroke="#000000" stroke-width="1" fill="none"></path></g><g stroke-linecap="round"><g stroke-opacity="0.9" fill-opacity="0.9" transform="translate(60.09900211988966 248.7439201911464) rotate(0 14.65930330192431 -2.712666309810544)"><path d="M0 0 C0.68 -0.72, 2.68 -3.4, 4.1 -4.32 C5.53 -5.24, 6.64 -5.3, 8.54 -5.52 C10.43 -5.73, 12.97 -5.73, 15.48 -5.63 C17.99 -5.52, 21.44 -5.45, 23.58 -4.86 C25.72 -4.28, 27.36 -2.95, 28.32 -2.1 C29.27 -1.24, 29.15 -0.12, 29.32 0.27 M0 0 C0.68 -0.72, 2.68 -3.4, 4.1 -4.32 C5.53 -5.24, 6.64 -5.3, 8.54 -5.52 C10.43 -5.73, 12.97 -5.73, 15.48 -5.63 C17.99 -5.52, 21.44 -5.45, 23.58 -4.86 C25.72 -4.28, 27.36 -2.95, 28.32 -2.1 C29.27 -1.24, 29.15 -0.12, 29.32 0.27" stroke="#000000" stroke-width="1" fill="none"></path></g></g><mask></mask><g stroke-linecap="round"><g transform="translate(811.5511580248252 152.6918367045888) rotate(89.99999999999994 28.747924531156002 72.27066154199645)" fill-rule="evenodd"><path d="M2.61 -5.68 C2.61 -5.68, 2.61 -5.68, 2.61 -5.68 M2.61 -5.68 C2.61 -5.68, 2.61 -5.68, 2.61 -5.68 M1.58 1.66 C3.93 -0.76, 7.03 -4.91, 9.83 -8.73 M1.29 1.44 C4.05 -1.99, 6.92 -5.04, 9.41 -7.09 M0.9 6.21 C4.5 3.08, 7.56 -1.11, 16.4 -8.19 M2.19 8.15 C6.73 3.02, 11.2 -2.94, 16.78 -10.02 M0.44 11.94 C10.48 4.13, 18.01 -1.81, 20.5 -8.88 M2.67 13.43 C10.11 4.25, 17.51 -4.69, 22.83 -9.82 M2.46 18.79 C11.87 8.53, 24.75 -5.67, 31.65 -12.39 M2.1 19.32 C12.9 7.59, 23.29 -6.04, 29.83 -11.55 M2.96 25.08 C12.16 15.11, 21.88 1.69, 33.31 -9.82 M2.84 26 C15.03 11.01, 27.22 -1.93, 34.91 -11.85 M0.91 33.1 C11.02 19.79, 21.64 10.96, 38.72 -10.76 M2.41 31.1 C13.64 18.16, 25.42 4.94, 38.68 -10.91 M2.18 38.43 C9.61 28.92, 20.59 14.51, 41.71 -10.35 M2.41 36.97 C16.36 20.45, 32.16 2.24, 43.14 -9.59 M0.88 43.34 C15.93 29.93, 26.57 15.28, 47.28 -10.42 M0.99 44.08 C18.44 23.09, 35.41 3.81, 47.28 -8.64 M3.26 50.15 C19.13 32.42, 36.83 12.68, 51.58 -9.12 M1.73 50.22 C15.19 35.22, 28.54 19.25, 52.16 -8.33 M1.06 54.62 C18.77 35.98, 34.16 19.66, 55.19 -4.52 M2.16 55.9 C17.39 37.85, 33.97 20.4, 55.21 -4.21 M3.43 63.33 C20.54 39.41, 41.06 18.77, 58.35 -0.03 M2.61 61.63 C19.2 41.96, 36.5 22.72, 56.56 -2.5 M57.47 -1.77 C57.68 -1.97, 57.73 -2.06, 58.05 -2.53 M57.5 -1.76 C57.66 -1.94, 57.9 -2.25, 58.11 -2.52 M3.59 68.37 C14.42 53.09, 27.63 40.36, 59.04 3.78 M1.94 67.49 C14.57 54.84, 25.68 41.02, 56.93 4.35 M2.82 73.9 C17.32 57.6, 36.45 38.21, 56.99 9.22 M1.55 74.1 C15.52 57.09, 30.43 40.72, 56.84 10.55 M1.9 81.52 C22.86 54.13, 45.95 28.67, 57.85 16.52 M1.25 81.05 C16.26 64.26, 30.24 48.07, 57.45 16.07 M0.49 88.48 C14.52 74.33, 26.93 58.39, 57.14 21.8 M1.17 86.54 C19.86 65.92, 37.85 44.39, 57.25 22.44 M3.36 91.06 C19.84 73.74, 34.02 52.88, 58.56 27.9 M2.38 92.66 C19.25 72.6, 36.96 50.56, 58.27 28.14 M1.81 97.99 C18.99 79.79, 35.73 57.94, 57.16 34.45 M1.39 98.66 C18.9 78.4, 36.31 60.37, 58.39 34.63 M1.47 103.82 C16.69 89.91, 31.23 73.91, 56.77 39.26 M3.01 104.33 C19.26 84.12, 37.96 64.52, 57.78 41.72 M3.78 110.26 C14.99 96.44, 26.18 84.68, 57.84 47.69 M2.88 111.24 C16.18 94.07, 32.17 78.04, 57.81 46.8 M1.77 115.59 C24.37 93.4, 46.32 69.02, 58.82 54.08 M2.31 116.12 C20.98 96.5, 38.66 75.32, 57.5 52.25 M1.49 124.03 C21.66 102.64, 39.94 80.67, 59.39 59.77 M2.79 122.11 C21.84 98.79, 42.9 75.79, 57.84 59.42 M1.21 127.85 C20.34 111.98, 34.25 89.31, 57.09 66.81 M2.23 128.87 C14.45 113.81, 28.16 98.07, 57.42 64.22 M4.07 133 C12.65 121.57, 24.34 108.65, 56.02 71.57 M2.72 134.11 C19.59 115.87, 35.6 95.42, 58.26 70.71 M2.77 140.75 C16.42 125.7, 29.36 111.85, 58.03 78.83 M2.2 141.18 C22.95 116.57, 43.64 94.16, 58 77.13 M1.41 147.3 C21.88 125.32, 41.26 102.12, 56.07 83.2 M1.45 148.63 C15.95 132.01, 30.75 115.39, 58.37 83.21 M5.49 151.37 C19.92 130.92, 35 113.83, 57.49 91.21 M5.08 151.7 C15.74 136.58, 28.78 122.42, 57.48 90.26 M7.3 152.69 C25.48 129.36, 46.33 110.05, 56.59 94.94 M8.05 152.78 C22.5 135.86, 37.05 118.19, 57.56 94.71 M10.44 155.48 C20.19 144.42, 31.71 132.46, 59.36 101.69 M11.19 154.83 C27.36 136.93, 42.61 120.66, 58.6 101.69 M16.48 156.95 C28.64 143.14, 39.43 128.36, 58.67 108.02 M16.95 155.78 C25.34 145.56, 33.06 136.16, 58.71 107.06 M19.56 158.08 C33.76 140.47, 46.33 126.41, 59.63 113.21 M21.09 157.3 C33.43 140.5, 48.22 125.74, 58.54 114.76 M23.04 157.29 C36.06 144.14, 51.08 127.93, 58.83 121.34 M24.35 158.38 C32.11 147.17, 42.95 138.08, 57.52 120.87 M31.4 155.81 C39.12 144.29, 49.98 136.32, 57 126.91 M31.41 156.6 C38.7 148.71, 44.66 140.26, 57.63 125.11 M35.7 156.07 C43.04 146.28, 50.46 136.51, 55.62 132.51 M37.45 156.55 C42.89 149.71, 50.16 142.38, 57.11 132.52 M43.31 155.78 C45.42 151.63, 52.97 145.42, 56.22 138.86 M42.93 155.76 C48.3 149.41, 53.4 143.47, 58.69 137.4 M47.17 154.68 C52.61 152.04, 53.72 148.68, 58.35 142.03 M49.22 155.23 C52.6 151.19, 56.4 145.46, 58.67 143.85" stroke="#ced4da" stroke-width="0.5" fill="none"></path><path d="M0.22 0.73 C0.19 22.15, -0.07 104.12, -0.04 127.91 C-0.01 151.7, 0.09 139.94, 0.42 143.48 C0.75 147.03, -0.12 147.06, 1.95 149.17 C4.02 151.28, 8.19 154.7, 12.85 156.12 C17.52 157.55, 24.19 157.93, 29.95 157.72 C35.7 157.52, 43.1 156.31, 47.39 154.87 C51.69 153.43, 53.97 151.29, 55.72 149.1 C57.46 146.91, 57.36 144.79, 57.86 141.72 C58.37 138.66, 58.72 152.57, 58.75 130.71 C58.78 108.85, 58.21 32.27, 58.05 10.54 C57.9 -11.18, 58.72 3.05, 57.81 0.35 C56.9 -2.35, 54.72 -3.81, 52.58 -5.65 C50.44 -7.5, 49 -9.49, 44.98 -10.69 C40.97 -11.9, 33.58 -12.6, 28.49 -12.88 C23.4 -13.16, 18.59 -13.73, 14.44 -12.35 C10.3 -10.97, 6.16 -6.53, 3.6 -4.61 C1.03 -2.69, -0.41 -1.63, -0.92 -0.82 C-1.44 -0.02, 0.3 -0.06, 0.5 0.21 M-1.12 0.07 C-1.34 21.65, -1.27 104.8, -1.11 128.91 C-0.94 153.02, -0.59 141.24, -0.13 144.73 C0.33 148.22, -0.83 147.83, 1.66 149.86 C4.15 151.9, 9.93 155.73, 14.81 156.93 C19.69 158.14, 25.4 157.59, 30.94 157.07 C36.47 156.55, 43.5 155.09, 48.02 153.81 C52.54 152.53, 56.66 151.07, 58.05 149.36 C59.44 147.65, 56.64 146.74, 56.36 143.55 C56.09 140.37, 56.03 152.27, 56.41 130.24 C56.78 108.21, 58.58 33.03, 58.63 11.39 C58.67 -10.26, 57.74 3.26, 56.69 0.39 C55.63 -2.49, 53.82 -3.96, 52.3 -5.85 C50.77 -7.75, 51.41 -9.78, 47.54 -10.98 C43.67 -12.18, 34.98 -12.99, 29.09 -13.06 C23.2 -13.13, 16.57 -12.41, 12.21 -11.41 C7.85 -10.41, 4.8 -8.8, 2.93 -7.04 C1.06 -5.28, 1.58 -2.12, 0.99 -0.85 C0.39 0.42, -0.61 0.53, -0.63 0.58" stroke="#e67700" stroke-width="1" fill="none"></path></g></g><mask></mask><g stroke-linecap="round"><g transform="translate(784.4797256255079 217.92725330725227) rotate(89.99999999999994 28.391617030507007 6.123599982716314)"><path d="M0.73 -0.23 C0.9 0.73, -0.71 4.42, 0.45 6 C1.61 7.58, 5.19 8.14, 7.7 9.25 C10.21 10.36, 11.73 12.11, 15.51 12.67 C19.29 13.22, 25.31 12.76, 30.35 12.57 C35.39 12.38, 41.71 12.89, 45.75 11.53 C49.8 10.17, 52.71 6.39, 54.61 4.42 C56.5 2.45, 57.04 0.35, 57.13 -0.32 M-0.35 -1.4 C0.24 -0.82, 1.42 2.19, 2.62 4.09 C3.82 6, 4.74 8.45, 6.87 10.03 C8.99 11.6, 11.6 13.12, 15.34 13.54 C19.08 13.95, 24.54 13.05, 29.3 12.53 C34.06 12.02, 39.52 11.49, 43.89 10.47 C48.26 9.46, 53.4 8.26, 55.53 6.44 C57.67 4.61, 56.52 0.66, 56.71 -0.49" stroke="#e67700" stroke-width="1" fill="none"></path></g></g><mask></mask><g stroke-linecap="round"><g transform="translate(834.6171410017265 218.30150888041408) rotate(89.99999999999994 27.167977217613213 5.033743678636256)"><path d="M-0.23 -1.03 C0.05 -0.43, 0.71 2.93, 1.88 4.34 C3.05 5.76, 4.47 6.29, 6.79 7.45 C9.11 8.61, 12.16 10.64, 15.81 11.31 C19.45 11.97, 23.82 11.69, 28.67 11.44 C33.51 11.19, 40.75 10.86, 44.87 9.81 C48.98 8.76, 51.46 7.01, 53.34 5.15 C55.22 3.29, 55.56 -0.41, 56.15 -1.36 M-1.81 1.05 C-1.67 1.78, -0.67 4.59, 1.15 5.81 C2.98 7.03, 6.7 7.79, 9.14 8.35 C11.59 8.91, 12.27 8.53, 15.82 9.17 C19.37 9.81, 25.36 12.24, 30.43 12.22 C35.51 12.2, 42.39 10.36, 46.26 9.05 C50.14 7.75, 52.18 6.28, 53.69 4.41 C55.19 2.54, 54.95 -1.09, 55.29 -2.15" stroke="#e67700" stroke-width="1" fill="none"></path></g></g><mask></mask><g stroke-linecap="round" transform="translate(886.0558352842453 211.84121017459807) rotate(89.99999999999994 28.29838876847765 12.58085473546106)"><path d="M19.82 0.5 C25.22 -0.42, 33.53 -0.33, 39.2 0.78 C44.86 1.89, 51.14 4.71, 53.81 7.16 C56.48 9.61, 56.77 12.85, 55.25 15.48 C53.72 18.12, 49.3 21.38, 44.65 22.98 C40 24.57, 33.34 25.24, 27.33 25.05 C21.32 24.86, 13.19 23.73, 8.58 21.84 C3.98 19.94, 0.44 16.43, -0.31 13.68 C-1.06 10.94, 0.28 7.48, 4.09 5.38 C7.89 3.27, 18.95 1.88, 22.53 1.07 C26.11 0.26, 25.48 0.48, 25.56 0.5 M15.74 0.92 C20.94 -0.05, 30.07 0.7, 36.09 1.47 C42.11 2.25, 48.53 3.3, 51.86 5.57 C55.2 7.84, 56.71 12.22, 56.12 15.08 C55.53 17.94, 52.54 20.9, 48.32 22.73 C44.09 24.55, 36.96 25.97, 30.77 26.04 C24.57 26.11, 16.27 24.71, 11.15 23.12 C6.02 21.53, 1.52 19.24, 0.03 16.51 C-1.46 13.78, -0.41 9.51, 2.22 6.75 C4.86 3.98, 13.2 0.92, 15.83 -0.11 C18.45 -1.13, 17.46 0, 17.99 0.58" stroke="none" stroke-width="0" fill="#fff"></path><path d="M26.35 0.68 C32.12 0.59, 39.67 1.53, 44.58 3.11 C49.5 4.69, 54.41 7.48, 55.82 10.16 C57.24 12.85, 55.76 17, 53.08 19.21 C50.39 21.43, 45.06 22.54, 39.71 23.44 C34.36 24.34, 26.76 25.29, 20.98 24.59 C15.2 23.89, 8.4 21.37, 5.01 19.24 C1.63 17.11, 0.14 14.28, 0.66 11.81 C1.17 9.34, 3.34 6.39, 8.12 4.4 C12.9 2.41, 25.11 0.43, 29.35 -0.13 C33.59 -0.69, 33.39 0.89, 33.57 1.04 M40.14 1.98 C45.3 3.23, 51.87 5.71, 54.58 7.98 C57.29 10.25, 58.19 12.96, 56.41 15.61 C54.63 18.25, 49.12 22.24, 43.91 23.85 C38.71 25.46, 31.17 25.48, 25.19 25.28 C19.21 25.07, 12.2 24.45, 8.04 22.63 C3.88 20.8, 0.38 17.14, 0.23 14.34 C0.07 11.54, 3.42 7.91, 7.11 5.81 C10.8 3.7, 16.94 2.46, 22.37 1.72 C27.8 0.97, 36.56 1.54, 39.68 1.36 C42.8 1.18, 41.11 0.38, 41.1 0.63" stroke="#e67700" stroke-width="1" fill="none"></path></g><g transform="translate(751.626790746658 258.4436996329261) rotate(0 94 13)"><text x="94" y="18" font-family="Virgil, Segoe UI Emoji" font-size="20px" fill="#e67700" text-anchor="middle" style="white-space: pre;" direction="ltr">cloudflared  tunnel</text></g><g transform="translate(984.2731283758384 211.058097638363) rotate(0 54.5 25.5)"><text x="54.5" y="18.5" font-family="Virgil, Segoe UI Emoji" font-size="20px" fill="#e67700" text-anchor="middle" style="white-space: pre;" direction="ltr">cloudflared</text><text x="54.5" y="44" font-family="Virgil, Segoe UI Emoji" font-size="20px" fill="#e67700" text-anchor="middle" style="white-space: pre;" direction="ltr">process</text></g><g stroke-linecap="round"><g transform="translate(151.11442877793553 201.96324499311925) rotate(0 103.36140731921051 0.6231058346027396)"><path d="M1 -0.94 C35.41 -0.46, 172.61 1.84, 206.65 2.18 M0.07 1.19 C34.34 1.36, 171.34 0.18, 205.94 0.34" stroke="#087f5b" stroke-width="1" fill="none"></path></g><g transform="translate(151.11442877793553 201.96324499311925) rotate(0 103.36140731921051 0.6231058346027396)"><path d="M176.22 11.44 C187.66 5.61, 194.84 3.57, 205.33 1.99 M177.09 11.2 C183.89 7.58, 192.05 5.16, 206.77 0.1" stroke="#087f5b" stroke-width="1" fill="none"></path></g><g transform="translate(151.11442877793553 201.96324499311925) rotate(0 103.36140731921051 0.6231058346027396)"><path d="M176.17 -9.08 C187.51 -8.4, 194.71 -3.94, 205.33 1.99 M177.03 -9.32 C184.05 -7.82, 192.22 -5.11, 206.77 0.1" stroke="#087f5b" stroke-width="1" fill="none"></path></g></g><mask></mask><g stroke-linecap="round"><g transform="translate(415.5951969207011 205.37158781153823) rotate(0 43.0643476382655 -0.32815062098430303)"><path d="M-0.77 1.03 C13.74 1.02, 72.48 0.47, 86.9 0.02 M1.03 0.53 C15.47 0.17, 72.44 -1.47, 86.4 -1.69" stroke="#087f5b" stroke-width="1" fill="none"></path></g><g transform="translate(415.5951969207011 205.37158781153823) rotate(0 43.0643476382655 -0.32815062098430303)"><path d="M60.18 10.65 C67.73 5.79, 72.96 1.75, 84.91 -3.25 M57.89 8.42 C68.36 4.07, 78.65 1.54, 87.04 -1.11" stroke="#087f5b" stroke-width="1" fill="none"></path></g><g transform="translate(415.5951969207011 205.37158781153823) rotate(0 43.0643476382655 -0.32815062098430303)"><path d="M59.7 -9.86 C67.41 -8.86, 72.77 -7.04, 84.91 -3.25 M57.41 -12.09 C68.17 -8.67, 78.65 -3.41, 87.04 -1.11" stroke="#087f5b" stroke-width="1" fill="none"></path></g></g><mask></mask><g stroke-linecap="round"><g transform="translate(700.4910371638135 235.61801825153515) rotate(0 137.19806442608467 -1.0773946799283465)"><path d="M0.52 0.62 C46.2 0.54, 229.4 -0.74, 275.06 -0.95 M-0.67 -0.09 C44.83 -0.5, 228.71 -2.37, 274.45 -2.78" stroke="#087f5b" stroke-width="1" fill="none"></path></g><g transform="translate(700.4910371638135 235.61801825153515) rotate(0 137.19806442608467 -1.0773946799283465)"><path d="M247.4 8.82 C258.07 3.76, 269.31 1.35, 273.24 -3.36 M245.9 6.78 C254.98 4.11, 265.77 -0.19, 274.72 -3.29" stroke="#087f5b" stroke-width="1" fill="none"></path></g><g transform="translate(700.4910371638135 235.61801825153515) rotate(0 137.19806442608467 -1.0773946799283465)"><path d="M247.2 -11.7 C257.87 -8.93, 269.19 -3.51, 273.24 -3.36 M245.71 -13.74 C254.92 -9.59, 265.77 -7.06, 274.72 -3.29" stroke="#087f5b" stroke-width="1" fill="none"></path></g></g><mask></mask><g stroke-linecap="round"><g transform="translate(1102.6921642412196 237.27767371525147) rotate(0 1.2670274528140908 27.59718483061826)"><path d="M0.98 -0.56 C1.1 8.87, 0.13 46.65, 0.13 55.75 M0.03 1.76 C0.6 10.93, 2.45 45.2, 2.5 54.06" stroke="#087f5b" stroke-width="1" fill="none"></path></g><g transform="translate(1102.6921642412196 237.27767371525147) rotate(0 1.2670274528140908 27.59718483061826)"><path d="M-8.68 27.49 C-3.99 35.26, -4.23 40.25, 2.11 53.33 M-8.59 27.74 C-4.07 35.93, -2.35 42.91, 2.9 53.75" stroke="#087f5b" stroke-width="1" fill="none"></path></g><g transform="translate(1102.6921642412196 237.27767371525147) rotate(0 1.2670274528140908 27.59718483061826)"><path d="M10.1 26.87 C10.07 34.95, 5.11 40.09, 2.11 53.33 M10.19 27.11 C9.71 35.49, 6.42 42.63, 2.9 53.75" stroke="#087f5b" stroke-width="1" fill="none"></path></g></g><mask></mask><g stroke-linecap="round"><g transform="translate(151.6093563236132 237.5650901517041) rotate(0 102.88891550148563 -0.058974308255130836)"><path d="M0.57 -1.08 C34.84 -1.04, 172.27 0.52, 206.37 0.84 M-0.59 0.96 C33.55 0.62, 171.86 -0.51, 206.02 -0.85" stroke="#c92a2a" stroke-width="1" fill="none"></path></g><g transform="translate(151.6093563236132 237.5650901517041) rotate(0 102.88891550148563 -0.058974308255130836)"><path d="M176.12 11.57 C189.43 5.62, 199.63 1.32, 205.94 -1.38 M178.6 8.75 C188.36 4.86, 200 2.18, 206.75 -0.74" stroke="#c92a2a" stroke-width="1" fill="none"></path></g><g transform="translate(151.6093563236132 237.5650901517041) rotate(0 102.88891550148563 -0.058974308255130836)"><path d="M175.94 -8.95 C189.42 -7.44, 199.68 -4.29, 205.94 -1.38 M178.41 -11.77 C188.2 -7.66, 199.91 -2.35, 206.75 -0.74" stroke="#c92a2a" stroke-width="1" fill="none"></path></g></g><mask></mask><g transform="translate(539.5290672844303 228.81319664596776) rotate(0 9.287815997031714 7.879299222176655)" stroke="none"><path fill="#c92a2a" d="M 1.09,-2.30 Q 1.09,-2.30 1.94,-1.94 2.78,-1.59 3.75,-1.05 4.73,-0.52 5.81,-0.07 6.90,0.37 8.11,1.42 9.32,2.47 10.17,3.37 11.01,4.27 12.04,5.21 13.06,6.15 13.96,6.86 14.85,7.57 15.95,8.91 17.04,10.24 19.30,12.00 21.56,13.77 21.78,14.31 22.00,14.84 22.04,15.42 22.08,16.00 21.93,16.56 21.78,17.13 21.46,17.61 21.14,18.09 20.68,18.45 20.22,18.81 19.67,19.00 19.12,19.19 18.54,19.20 17.96,19.20 17.41,19.02 16.86,18.84 16.39,18.50 15.92,18.15 15.59,17.67 15.26,17.20 15.10,16.64 14.94,16.08 14.96,15.50 14.99,14.92 15.20,14.38 15.41,13.84 15.78,13.39 16.15,12.94 16.64,12.64 17.14,12.33 17.70,12.20 18.27,12.07 18.85,12.13 19.43,12.18 19.96,12.42 20.49,12.66 20.91,13.05 21.34,13.45 21.62,13.96 21.89,14.47 21.99,15.04 22.09,15.61 22.01,16.19 21.92,16.76 21.65,17.28 21.38,17.80 20.97,18.20 20.55,18.60 20.02,18.85 19.50,19.10 18.92,19.17 18.35,19.24 17.78,19.12 17.21,19.00 16.71,18.71 16.21,18.41 15.83,17.98 15.45,17.54 15.45,17.54 15.45,17.54 14.64,17.22 13.84,16.89 12.75,15.81 11.66,14.72 10.83,13.53 10.00,12.34 9.12,11.54 8.24,10.74 7.31,9.74 6.38,8.74 5.66,7.79 4.94,6.85 4.12,5.92 3.30,4.99 1.90,4.07 0.51,3.16 -0.29,2.73 -1.09,2.30 -1.35,2.13 -1.61,1.97 -1.83,1.75 -2.04,1.52 -2.19,1.26 -2.35,0.99 -2.43,0.69 -2.52,0.40 -2.53,0.09 -2.54,-0.21 -2.48,-0.51 -2.41,-0.81 -2.28,-1.09 -2.15,-1.36 -1.95,-1.60 -1.76,-1.84 -1.51,-2.02 -1.27,-2.21 -0.98,-2.33 -0.70,-2.45 -0.40,-2.50 -0.09,-2.55 0.21,-2.52 0.51,-2.49 0.80,-2.40 1.10,-2.30 1.10,-2.30 L 1.09,-2.30 Z"></path></g><g transform="translate(557.8096073429873 225.4753339370102) rotate(0 -9.273284340592284 8.830626170029404)" stroke="none"><path fill="#c92a2a" d="M 1.44,2.06 Q 1.44,2.06 0.94,2.47 0.43,2.88 -0.40,3.63 -1.23,4.37 -2.43,5.65 -3.63,6.92 -4.44,7.79 -5.25,8.65 -6.17,9.48 -7.09,10.32 -7.93,11.36 -8.76,12.41 -9.74,13.55 -10.72,14.69 -11.70,15.49 -12.68,16.30 -14.00,17.84 -15.32,19.38 -15.69,19.84 -16.06,20.30 -16.56,20.62 -17.05,20.94 -17.63,21.08 -18.20,21.22 -18.79,21.18 -19.38,21.13 -19.92,20.89 -20.46,20.66 -20.90,20.27 -21.34,19.87 -21.63,19.36 -21.92,18.85 -22.03,18.27 -22.15,17.69 -22.07,17.10 -21.99,16.52 -21.73,15.99 -21.46,15.46 -21.05,15.04 -20.63,14.62 -20.10,14.36 -19.57,14.10 -18.99,14.02 -18.40,13.94 -17.82,14.05 -17.24,14.16 -16.73,14.45 -16.21,14.74 -15.82,15.18 -15.42,15.62 -15.19,16.16 -14.96,16.70 -14.91,17.29 -14.86,17.88 -15.00,18.45 -15.14,19.03 -15.46,19.52 -15.78,20.02 -16.24,20.39 -16.70,20.76 -17.25,20.96 -17.81,21.17 -18.40,21.19 -18.99,21.20 -19.55,21.03 -20.12,20.86 -20.60,20.51 -21.08,20.17 -21.42,19.69 -21.77,19.21 -21.94,18.64 -22.11,18.08 -22.10,17.49 -22.08,16.90 -21.88,16.35 -21.68,15.79 -21.68,15.79 -21.68,15.79 -20.03,14.16 -18.38,12.54 -17.18,11.61 -15.98,10.68 -15.24,9.68 -14.51,8.67 -13.82,7.86 -13.13,7.06 -12.28,6.12 -11.44,5.18 -10.37,4.38 -9.31,3.57 -8.22,3.04 -7.13,2.51 -5.90,1.20 -4.68,-0.10 -3.62,-0.74 -2.56,-1.38 -2.00,-1.72 -1.44,-2.06 -1.17,-2.20 -0.91,-2.34 -0.61,-2.42 -0.32,-2.49 -0.02,-2.49 0.28,-2.50 0.57,-2.43 0.87,-2.36 1.14,-2.22 1.41,-2.08 1.64,-1.88 1.87,-1.68 2.04,-1.43 2.21,-1.18 2.32,-0.90 2.43,-0.62 2.47,-0.32 2.51,-0.02 2.48,0.28 2.44,0.58 2.34,0.86 2.23,1.15 2.06,1.40 1.89,1.65 1.67,1.85 1.44,2.06 1.44,2.06 L 1.44,2.06 Z"></path></g><g stroke-linecap="round"><g transform="translate(414.04924756242093 233.7495415632627) rotate(0 59.369748395475284 1.996743705245109)"><path d="M1.15 0.99 C21 1.71, 98.93 3.39, 118.45 3.54 M0.29 0.46 C20.11 0.9, 98.32 1.37, 117.9 1.73" stroke="#c92a2a" stroke-width="1" fill="none"></path></g><g transform="translate(414.04924756242093 233.7495415632627) rotate(0 59.369748395475284 1.996743705245109)"><path d="M91.24 12.93 C97.57 9.92, 101.67 8.46, 119.25 1.64 M89.33 12.56 C99.78 7.45, 111.08 3.47, 117.36 0.86" stroke="#c92a2a" stroke-width="1" fill="none"></path></g><g transform="translate(414.04924756242093 233.7495415632627) rotate(0 59.369748395475284 1.996743705245109)"><path d="M91.47 -7.59 C97.6 -5.6, 101.64 -2.05, 119.25 1.64 M89.57 -7.96 C99.87 -5.53, 111.09 -1.98, 117.36 0.86" stroke="#c92a2a" stroke-width="1" fill="none"></path></g></g><mask></mask><g transform="translate(151.6400592285059 212.05519723381906) rotate(0 74 13)"><text x="74" y="18" font-family="Virgil, Segoe UI Emoji" font-size="20px" fill="#000000" text-anchor="middle" style="white-space: pre;" direction="ltr">HTTP Request</text></g><g transform="translate(173.02274644871414 174.4789684308779) rotate(0 53 13)"><text x="53" y="18" font-family="Virgil, Segoe UI Emoji" font-size="20px" fill="#087f5b" text-anchor="middle" style="white-space: pre;" direction="ltr">authorized</text></g><g transform="translate(157.3132748592031 242.98196704387385) rotate(0 67.5 13)"><text x="67.5" y="18" font-family="Virgil, Segoe UI Emoji" font-size="20px" fill="#c92a2a" text-anchor="middle" style="white-space: pre;" direction="ltr">un-authorized</text></g></svg>